<svg width="32" height="30" viewBox="0 0 32 30" fill="none" xmlns="http://www.w3.org/2000/svg">
<path d="M31.6313 24C31.6313 24.6504 31.3857 25.2032 30.8945 25.6585L27.3155 28.9756C26.8243 29.4309 26.2278 29.6585 25.5261 29.6585C24.8243 29.6585 24.2278 29.4309 23.7366 28.9756L15.9997 21.8049L8.2629 28.9756C7.77167 29.4309 7.17518 29.6585 6.47343 29.6585C5.77167 29.6585 5.17518 29.4309 4.68395 28.9756L1.10501 25.6585C0.613778 25.2032 0.368164 24.6504 0.368164 24C0.368164 23.3496 0.613778 22.7967 1.10501 22.3415L8.84185 15.1707L1.10501 8C0.613778 7.54471 0.368164 6.99187 0.368164 6.34146C0.368164 5.69105 0.613778 5.13821 1.10501 4.68292L4.68395 1.36585C5.17518 0.910565 5.77167 0.682922 6.47343 0.682922C7.17518 0.682922 7.77167 0.910565 8.2629 1.36585L15.9997 8.53658L23.7366 1.36585C24.2278 0.910565 24.8243 0.682922 25.5261 0.682922C26.2278 0.682922 26.8243 0.910565 27.3155 1.36585L30.8945 4.68292C31.3857 5.13821 31.6313 5.69105 31.6313 6.34146C31.6313 6.99187 31.3857 7.54471 30.8945 8L23.1576 15.1707L30.8945 22.3415C31.3857 22.7967 31.6313 23.3496 31.6313 24Z" fill="#FF6969"/>
</svg>
